<?xml version="1.0" encoding="iso-8859-1"?>
<svg version="1.1" id="Capa_1" xmlns="http://www.w3.org/2000/svg" xmlns:xlink="http://www.w3.org/1999/xlink" x="0px" y="0px"
	 viewBox="0 0 26 26" style="enable-background:new 0 0 26 26;" xml:space="preserve"><g><path style="fill:#030104;" d="M21.125,0H4.875C2.182,0,0,2.182,0,4.875v16.25C0,23.818,2.182,26,4.875,26h16.25
		C23.818,26,26,23.818,26,21.125V4.875C26,2.182,23.818,0,21.125,0z M19.186,17.033c0.301,0.3,0.299,0.785,0,1.085l-1.084,1.084
		c-0.299,0.299-0.785,0.299-1.084,0l-4.025-4.026l-4.025,4.025c-0.3,0.301-0.785,0.299-1.085,0l-1.084-1.084
		c-0.299-0.299-0.299-0.785,0-1.084l4.026-4.025L6.799,8.981c-0.301-0.3-0.301-0.784,0-1.084l1.084-1.084
		c0.299-0.3,0.783-0.3,1.084,0l4.025,4.026l4.026-4.025c0.3-0.301,0.784-0.301,1.084,0l1.084,1.084c0.3,0.299,0.3,0.783,0,1.084
		l-4.026,4.025L19.186,17.033z"/></g></svg>
