<svg xmlns="http://www.w3.org/2000/svg" width="16" height="16"><circle cx="8" cy="8" r="7.78" fill="#fff" stroke="#fff" stroke-width=".44"/><path fill="#7349ff" stroke="#7349ff" stroke-width=".1" d="M7.13 2.7c0-.14.03-.26.1-.37a.7.7 0 0 1 .97-.27.75.75 0 0 1 .34.64.75.75 0 0 1-.2.52.68.68 0 0 1-.5.22.7.7 0 0 1-.62-.36.77.77 0 0 1-.09-.38Zm-.24 0a.94.94 0 0 0 .57.89c.12.05.24.07.38.07.13 0 .25-.06.37-.07.17-.02.37.14.5 0 .14-.14-.01-.34 0-.5.01-.14.07-.25.07-.39a.98.98 0 0 0-.27-.68.93.93 0 0 0-.68-.28.94.94 0 0 0-.94.96zm2.13 1.35c.04 0 .08 0 .11-.03a.15.15 0 0 0-.19-.23.15.15 0 0 0-.02.2c.03.04.06.06.1.06z" transform="matrix(5.23403 0 0 5.19545 -34.54 -7.42)"/></svg>