<?xml version="1.0" encoding="utf-8"?>
<!-- Svg Vector Icons : http://www.onlinewebfonts.com/icon -->
<!DOCTYPE svg PUBLIC "-//W3C//DTD SVG 1.1//EN" "http://www.w3.org/Graphics/SVG/1.1/DTD/svg11.dtd">
<svg version="1.1" xmlns="http://www.w3.org/2000/svg" xmlns:xlink="http://www.w3.org/1999/xlink" x="0px" y="0px" viewBox="0 0 1000 1000" enable-background="new 0 0 1000 1000" xml:space="preserve">
<metadata> Svg Vector Icons : http://www.onlinewebfonts.com/icon </metadata>
<g><g transform="translate(0.000000,511.000000) scale(0.100000,-0.100000)"><path d="M1632.4,5004c-55.7-11.7-149.4-46.9-205.1-73.2C1275,4851.7,246.7,3811.6,167.6,3656.4C91.4,3504,76.8,3258,138.3,3082.2c43.9-131.8,477.5-600.6,553.7-600.6c26.4,0,254.9,208,512.7,465.8c375,377.9,460,474.6,451.2,533.2c-5.8,46.9-32.2,73.2-79.1,79.1c-55.7,8.8-146.5-67.4-474.6-392.6l-407.2-407.2l-175.8,175.8c-208,208-260.7,339.8-205.1,527.3c26.4,93.8,149.4,231.4,594.7,685.5c618.2,621.1,723.6,697.3,937.5,662.1c99.6-17.6,167-64.5,375-266.6c140.6-134.7,263.7-246.1,275.4-246.1c52.7,0,131.8,67.4,131.8,111.3c0,70.3-430.7,492.2-556.6,542C1934.2,5009.9,1758.4,5030.4,1632.4,5004z"/><path d="M1770.1,3337.1c-600.6-600.6-928.7-949.2-928.7-987.3c0-70.3,1192.4-1274.4,1259.8-1274.4c58.6,0,1933.6,1877.9,1933.6,1933.6c0,67.4-1207,1259.7-1274.4,1259.7C2722.3,4268.7,2370.7,3937.6,1770.1,3337.1z M2153.9,2959.1L1324.8,2130l-108.4,108.4l-111.3,108.4l826.2,829.1l829.1,829.1l108.4-108.4l111.3-108.4L2153.9,2959.1z M3267.2,3498.2l123-123.1l-829.1-829.1L1735,1719.9l-131.8,131.8l-131.8,131.8l820.3,820.3c451.2,451.2,826.2,820.3,835,820.3S3199.8,3568.5,3267.2,3498.2z M3741.8,2997.2c0-41-1585-1628.9-1623-1628.9c-17.6,0-73.2,41-126,93.8l-96.7,93.7l826.2,829.1l826.2,829.1l96.7-93.8C3697.8,3067.5,3741.8,3011.9,3741.8,2997.2z"/><path d="M3191,1916.2c-518.6-518.6-943.4-963.9-943.4-987.3c0-23.4,1130.8-1174.8,2513.6-2557.6L7272-4139.4l542-143.6c298.8-79.1,641.6-169.9,761.7-202.1c1209.9-325.2,1262.7-336.9,1309.6-290c46.9,46.9,2.9,240.2-448.2,1904.3c-87.9,316.4-158.2,600.6-158.2,629.9c0,61.5-5036.1,5103.5-5097.6,5103.5C4157.8,2862.5,3712.5,2437.7,3191,1916.2z M8159.7-3046.7l-829.1-829.1L4922.4-1467.6L2511.3,943.5l826.2,826.2l829.1,829.1L6574.8,190.6l2411.1-2411.1L8159.7-3046.7z M9217.3-2897.3c67.4-246.1,120.1-468.7,120.1-501c0-70.3-758.8-829.1-829.1-829.1c-29.3,0-257.8,55.7-506.8,123l-457,120.1l770.5,770.5c424.8,424.8,773.4,767.6,776.4,764.7C9094.3-2452,9152.9-2654.1,9217.3-2897.3z M9539.6-4107.2c61.5-225.6,105.4-416,99.6-421.9c-5.9-5.9-143.5,23.4-310.5,70.3c-164.1,43.9-357.4,93.8-427.7,114.3l-128.9,35.2l316.4,316.4c175.8,175.8,325.2,316.4,331,310.5C9422.4-3688.3,9478.1-3878.7,9539.6-4107.2z"/><path d="M3894.1,2124.2c-20.5-20.5-35.2-55.7-35.2-82c0-23.4,1019.5-1063.5,2267.6-2311.5C8212.4-2355.3,8400-2534,8470.3-2516.4c52.7,11.7,76.2,38.1,76.2,85c0,46.9-615.2,679.7-2264.6,2329.1C5039.6,1139.8,3999.6,2159.3,3973.2,2159.3C3949.8,2159.3,3914.6,2144.7,3894.1,2124.2z"/><path d="M2985.9,1216c-20.5-20.5-35.2-55.7-35.2-82c0-23.4,1019.5-1063.5,2264.6-2308.6c1907.2-1907.2,2279.3-2264.6,2337.9-2255.8c46.9,5.8,73.2,32.2,79.1,79.1c8.8,58.6-348.6,430.7-2255.8,2337.9C4131.4,231.6,3091.4,1251.1,3067.9,1251.1C3041.6,1251.1,3006.4,1236.5,2985.9,1216z"/></g></g>
</svg>